<svg xmlns="http://www.w3.org/2000/svg" xmlns:xlink="http://www.w3.org/1999/xlink" version="1.1" x="0px" y="0px" viewBox="0 0 100 125" enable-background="new 0 0 100 100" xml:space="preserve"><symbol id="a" viewBox="-132.8 -116.4 265.7 232.7"><g><path fill="#000000" d="M-28.1,64.6c3.1,0,5.5,2.5,5.5,5.5s-2.5,5.5-5.5,5.5s-5.5-2.5-5.5-5.5S-31.2,64.6-28.1,64.6z"/><path fill="#000000" d="M7.6,76.6c3.1,0,5.5,2.5,5.5,5.5s-2.5,5.5-5.5,5.5S2,85.2,2,82.1S4.5,76.6,7.6,76.6z"/><path fill="#000000" d="M128.1-95c-4.1,4.3-10,6.8-16.2,6.8c-17.1,0-28.3-7.3-28.6-18.5c-0.1-2.5,0.9-4.9,2.7-6.7    c1.8-1.9,4.3-2.9,6.9-2.9h30.4c5,0,9.2,3.9,9.5,8.8C133.1-103,131.4-98.6,128.1-95z M93.3-106.4c0.7,4.8,8.2,8.2,18.6,8.2    c3.4,0,6.7-1.4,8.9-3.7c0.9-1,2-2.6,2.1-4.5H93.3z"/><path fill="#000000" d="M88.6-79.3c2,3.3,2.6,7.2,1.8,10.8h11.8c4.1,0,7.9,2.1,10,5.6c2.1,3.5,2.3,7.7,0.5,11.3    c-4.3,8.5-12.7,13.7-21.9,13.7c-4.8,0-9.8-2.3-13.5-4.7L64.6-18.2c-0.4,0.8-0.8,1.5-1.3,2.2c0.3,1.4,0.5,2.8,0.5,4.2    c0,9.7-7.6,17.6-17,17.6c-5.3,0-10-2.5-13.1-6.4h-0.3V13c0,4.6,3.7,8.3,8.3,8.3c6.8,0,13.4,2.3,18.9,6.4l17.6-8.3    c0.7-0.3,1.4-0.5,2.1-0.5c1.9,0,3.7,1.1,4.5,2.9c1.2,2.5,0.1,5.5-2.4,6.7l-14.6,6.9c1.5,2.2,2.8,4.6,3.7,7.2l15.7,2.7    c2.7,0.5,4.5,3.1,4.1,5.8c-0.5,2.7-3.1,4.5-5.8,4.1l-12.1-2.1c0,1.5-0.1,3-0.3,4.6C71,72.9,57.3,84.5,41.4,84.5h-4    c-3.3,0-6.3,1.9-7.5,4.8c-7,16.4-23,27-40.7,27c-0.3,0-0.7,0-1,0c-23.5-0.6-42.6-20.5-42.6-44.4V5.1c-2.7,1.6-5.7,2.6-9.1,2.6    c-9,0-16.4-6.8-17.4-15.5c-3.4-2.8-6.3-6.2-8.4-10.3l-6.3-12c-5.4,2.3-13.1,4.7-18,4.7c-10.1,0-18.7-10-19.2-22.2    c-0.1-3.3,1.1-6.5,3.4-8.8c2.3-2.4,5.4-3.7,8.7-3.7h9.3l-2.3-4.5c-0.4-0.8-0.8-1.7-1-2.6c-2.9-4.4-4.6-9.7-4.8-15.6    c-0.2-4,1.3-7.8,4-10.6c2.5-2.6,5.8-4,9.3-4h35.6c6.3,0,11.6,4.7,12.9,10.9h79c-0.2-0.4-0.4-0.8-0.6-1.2c-1.6-3.8-1.3-8.2,1-11.7    c2.3-3.5,6.1-5.5,10.3-5.5h29c4.6,0,8.9,2.4,11.3,6.3c2.3,3.7,2.5,8.2,0.8,12.1h2.8C81.1-86.6,85.9-83.9,88.6-79.3z M90.9-47.8    c5.4,0,10.4-3.2,13-8.2c0.3-0.7,0.1-1.2-0.1-1.6c-0.2-0.3-0.6-0.9-1.5-0.9H86.8l-4,7.6C85.5-49.2,88.7-47.8,90.9-47.8z M47.8,71.6    c8.1,0,14.6-6.5,14.6-14.6s-6.5-14.6-14.6-14.6S33.2,48.9,33.2,57S39.7,71.6,47.8,71.6z M7.6,97.6c8.6,0,15.5-7,15.5-15.5    s-7-15.5-15.5-15.5S-8,73.5-8,82.1S-1,97.6,7.6,97.6z M16.5,25.5l-17.5-7.2C-1.7,18-2.4,17.9-3,17.9c-2,0-3.8,1.2-4.6,3.1    c-1,2.6,0.2,5.5,2.7,6.5l17.5,7.2c2.6,1,5.5-0.2,6.5-2.7C20.2,29.4,19,26.5,16.5,25.5z M-10.2,49.7c0.4,2.7,3,4.6,5.7,4.2l18.8-3    c2.7-0.4,4.6-3,4.2-5.7c-0.4-2.5-2.5-4.2-4.9-4.2c-0.3,0-0.5,0-0.8,0.1l-18.8,3C-8.8,44.4-10.6,47-10.2,49.7z M-28.1,85.6    c8.6,0,15.5-7,15.5-15.5s-7-15.5-15.5-15.5s-15.5,7-15.5,15.5S-36.7,85.6-28.1,85.6z M-120.8-50.2c-0.8,0-1.3,0.4-1.5,0.6    c-0.2,0.2-0.6,0.8-0.6,1.5c0.2,6.7,4.5,12.5,9.2,12.5c3,0,8.9-1.8,13.2-3.5l-6.3-11.2H-120.8z M-70.8-87.5h-35.6    c-1,0-1.7,0.5-2.1,1c-0.8,0.8-1.2,2-1.2,3.3c0.5,12.9,10.6,20.9,26.1,20.9c3.4,0,6.8-1.6,9.7-4.5c4.1-4.1,6.5-10.4,6.4-16.7    C-67.6-85.6-69.1-87.5-70.8-87.5z M-83.6-52.3c-4.9,0-9.4-0.7-13.5-1.9l16.6,31.5c0.6,1.2,1.4,2.4,2.2,3.4    c1.4-2.1,3.2-3.9,5.3-5.3l0.2-6.2c0.1-2.7,2.3-4.8,5-4.8c0.1,0,0.1,0,0.2,0c2.8,0.1,4.9,2.4,4.8,5.2l-0.1,3.1    c0.8,0,1.6,0.1,2.4,0.2l1.1-4.3c0.6-2.2,2.6-3.7,4.8-3.7c0.4,0,0.9,0.1,1.3,0.2c2.7,0.7,4.3,3.4,3.6,6.1l-1.7,6.4    c0.1,0.1,0.2,0.2,0.4,0.3l5-3.1c0.8-0.5,1.7-0.8,2.6-0.8c1.7,0,3.3,0.8,4.3,2.4c1.5,2.3,0.7,5.4-1.6,6.9l-5.5,3.4    c0.2,0.9,0.3,1.9,0.3,2.9h74.4h1.5c0-0.4-0.1-0.8-0.1-1.2c0-1.1,0.1-2.1,0.3-3.1l-5.2-3.4c-2.3-1.5-3-4.6-1.5-6.9    c1-1.5,2.6-2.3,4.2-2.3c0.9,0,1.9,0.3,2.7,0.8l4.2,2.7c0.3-0.3,0.6-0.6,0.9-0.9l-1.5-6c-0.7-2.7,0.9-5.4,3.6-6.1    c0.4-0.1,0.8-0.2,1.2-0.2c2.2,0,4.3,1.5,4.8,3.8l1.1,4.2c0.7-0.1,1.4-0.1,2.1-0.1c0.2,0,0.3,0,0.5,0l-0.1-3.1    c-0.1-2.8,2.1-5.1,4.8-5.2c0.1,0,0.1,0,0.2,0c2.7,0,4.9,2.1,5,4.8l0.2,6.7l22.8-43.3c1.2-2.2,0.3-4.2-0.1-4.9    c-0.4-0.7-1.7-2.4-4.3-2.4H65.3c-5.1,4.2-11.5,6.7-18.2,6.7c-6.7,0-13.1-2.4-18.2-6.7h-87.1c-1.2,6.4-4.2,12.3-8.6,16.8    C-71.6-55-77.5-52.3-83.6-52.3z M63.7-93.4c-0.3-0.5-1.1-1.6-2.8-1.6h-29c-1.1,0-1.7,0.7-2,1.1c-0.3,0.4-0.6,1.2-0.2,2.2    c3.1,7.2,9.9,11.8,17.3,11.8c7,0,13.4-4.1,16.7-10.6C64.5-91.8,64-92.9,63.7-93.4z"/></g></symbol><use xlink:href="#a" width="265.7" height="232.7" x="-132.8" y="-116.4" transform="matrix(0.3533 0 0 -0.3533 50 50)" overflow="visible"/><text x="0" y="115" fill="#000000" font-size="5px" font-weight="bold" font-family="'Helvetica Neue', Helvetica, Arial-Unicode, Arial, Sans-serif">Created by HeadsOfBirds</text><text x="0" y="120" fill="#000000" font-size="5px" font-weight="bold" font-family="'Helvetica Neue', Helvetica, Arial-Unicode, Arial, Sans-serif">from the Noun Project</text></svg>