<svg xmlns="http://www.w3.org/2000/svg" xmlns:xlink="http://www.w3.org/1999/xlink" version="1.1" x="0px" y="0px" viewBox="0 0 100 125" enable-background="new 0 0 100 100" xml:space="preserve"><g><path fill="#000000" d="M96.614,61.603c-0.13-0.326-1.603-1.188-2.493-1.307c-1.257,0.033-4.972-0.393-5.461-0.652   c-0.49-0.262-1.993-0.359-1.306-0.439c1.52-0.178,1.946-0.623,2.262-0.518c0.891,0.297,1.121,0.777,1.894,0.957   c0.702,0.162,0.756-0.389,0.303-1.016c-0.465-0.646-0.681-0.83-1.55-1.123c-0.968-0.324-1.146,0.061-1.603,0.061   c-0.458,0-1.812,0.236-2.137,0.236c-0.586,0-1.065-0.424-2.138-0.119c-0.595-0.09-1.662-0.712-2.494-1.068   c-0.237-1.364-1.649-2.052-2.172-2.962c-0.503-0.88-3.743-6.713-7.311-9.335c0.053-0.356,0.107-1.004-0.392-1.24   c0.444-0.495,0.932-1.737-0.065-4.244c-0.12-0.3,0.402-0.737-0.588-1.631c-0.516-0.465-0.466-0.659-0.596-1.247   c-0.131-0.587-0.318-0.582-0.579-0.908c-0.024-0.467-0.024-0.467-0.593-0.602c1.596-1.297,2.92-4.433,0.527-6.775   c-0.195-0.457-0.653-0.393-0.587-0.784c0.064-0.392-0.086-0.809-0.588-1.306c-0.924-0.913-1.277-0.278-1.501-0.391   c-0.584-0.293-0.669-0.518-1.115-0.521c-0.355-0.004-1.473,0.002-1.889,0.325c-0.442,0.345-0.829,0.18-1.566,0.348   c-0.709,0.76-0.601,1.625-1.782,2.201c-0.652,0.326-1.221,0.389-1.742,0.258c-0.522-0.13-0.784-0.326-1.437-0.261   c-0.652,0.065-1.118,0.372-1.771,0.545c-0.652,0.173-0.709-0.043-1.428-0.261c-0.717-0.219-1.305,0.382-1.827,0.147   c-0.522-0.236-0.335-0.333-1.119-0.429c-1.532,0.638-2.254,0.346-3.255,0.5c-0.587,0.412-1.854,1.161-2.301,1.607   c-0.587,0-2.921-0.543-3.966-0.217c-1.044,0.327-2.089,0.458-2.742,0.392c-0.652-0.065-1.958,0.522-2.676,0.718   c-0.718,0.196-2.024,0.522-2.546,0.587c-0.522,0.065-1.306,0.391-1.893,0.652c-0.588,0.262-1.24,0.849-1.566,0.914   c-0.327,0.066-0.979,0.196-1.502,0.327c-0.522,0.13-0.522,0-1.437,0.457c-0.914,0.458-2.219,1.11-2.807,1.436   c-0.587,0.327-1.813,1.541-2.404,2.284c-0.443,0.558,0.273,0.316-1.1,1.922c0.271-1.18,0.458-1.695-0.087-2.313   c-0.587-0.458-0.745-1.029-1.3-1.22c-0.866-0.299-1.453-0.164-2.171,0.032s-1.17,0.155-1.564,0.192   c-0.867,0.081-1.296-0.048-1.557,0.344c-0.261,0.392-0.507,0.614-1.03,0.614c-0.522,0-0.863-0.222-1.124,0.104   s-0.35,0.567-0.6,0.662c-0.491,0.187-0.771,0.187-1.228,0.448c-0.457,0.261-0.196,0.196-0.457,0.587   c-0.261,0.393-0.392,0.261-0.783,0.523c-0.392,0.261,0.054,0.347-0.534,0.869c-0.587,0.523-0.772,0.176-1.033,0.567   c-0.261,0.391-0.131,0.979-0.522,1.371c-0.392,0.392-0.647,0.074-0.784,0.784c-0.135,0.708,0,1.043-0.119,1.302   c-0.257,0.554-0.67,0.551-0.798,1.022c-0.105,0.383-0.004,0.939-0.261,1.332c-0.257,0.392-0.112,1.496-0.322,1.697   c-0.406,0.388-0.949,1.569-0.914,1.958c0.026,0.29-0.9,1.238-1.153,2.524c-0.289,1.468-1.52,2.763-1.175,3.494   c1.055,2.236,4.435,8.127,6.292,12.557c0.223,0.533,1.688,1.098,1.73-0.928c0.017-0.799-1.06-1.57-0.102-2.814   c0.762-0.219,1.583,0.277,1.949,0.672c0.399,0.432,1.943,1.652,2.064,2.725c0.078,0.689,2.394,2.479,2.321,3.248   c-0.084,0.887,0.192,3.492,1.461,3.861c1.013,0.295,1.155-3.65,0.522-4.83c-0.569-1.064-2.244-3.439-2.519-3.832   c-0.319-0.453-0.228-0.416-0.412-0.887c-0.22-0.563,0.096-1.563,1.688-0.76c0.667,0.336,1.431,1.076,1.889,1.393   c0.548,0.381,0.632,0.932,1.012,1.646c0.307,0.576,1.297,0.959,1.688,0.633c0.177-0.148-0.692-1.965-1.056-2.488   c-0.875-1.26-5.832-4.955-5.896-5.379c0.688,0.439,4.671,2.063,5.102,2.482c1.196,1.166,5.173,3.166,7.181,3.459   c0.48,0.264,0.522,0.588,0.719,0.85c0.195,0.26,0.596-0.135,0.783,0.391c0.257,0.721,1.232,1.064,1.978,1.441   c0.48,0.244,2.053,1.355,2.465,1.768c0.326,0.326,2.513,1.457,2.869,1.621c0.316,0.146,3.72,0.457,4.113,0.457   c0.391,0,2.933-0.041,3.199,0c0.864,0.131,1.619-0.244,1.958-0.391c0.511-0.223,1.281,0.445,1.627,0.592   c0.583,0.246,1.729,1.203,1.744,1.465c0.031,0.549,0.836,1.195,1.162,0.998c0.326-0.195,0.499-0.883,0.304-1.404   c-0.196-0.521-0.075-1.193-0.467-1.455c-0.391-0.26-1.106-0.98-0.911-0.98c0.196,0,3.027,0.633,3.786,0.979   c0.421,0.193,0.849-0.326,1.306-0.326s2.023,0.262,2.285,0.393c0.261,0.131,1.436,0.98,1.632,0.98s0.783-0.066,0.652-0.654   c-0.13-0.586-1.566-2.023-1.957-2.152c-0.393-0.131-2.314-0.26-2.771-0.26c-0.457,0-2.322-0.393-2.714-0.393   c-2.047,0-1.878-0.447-4.961-1.373c0,0,2.709,0.072,3.198,0.523c0.257,0.236,1.57,0.824,1.942,0.305   c0.022-0.365-0.44-0.762-0.768-1.283c-0.326-0.523-0.652-0.785-1.305-0.785c-0.653,0-0.784,0.197-1.306,0   c-0.522-0.195-0.898-0.15-1.436-0.586c-0.36-0.293-0.803-0.357-1.325-0.293c-0.521,0.066-1.025,0.357-1.482,0.293   c-0.458-0.066-0.849-0.457-1.175-0.914c10.98,0.248,17.629-2.541,20.432-4.178c4.158-2.428,7.229-5.606,7.703-7.964   c0.103-0.517,1.044,0.064,2.023,0.717c0.979,0.653,2.024,1.566,2.024,1.894c0,0.326,2.6,3.82,3.197,4.615   c1.246,1.662,6.352,1.959,8.429,1.426c1.484,0.652,3.227,0.68,4,0.713c0.567,0.021,1.348,0.41,1.64,0.949   c0.105,0.193,0.713,1.186,1.484,1.068c0.354-0.055,0.045-2.141-0.453-2.553c-1.15-0.949-3.163-1.209-5.187-1.783   c0-0.109,2.85,0.299,4.749,0.951c1.01-0.178,2.908,0.17,3.087,0.238c0.475,0.178,1.47,1.129,1.714,1.303   c0.232,0.164,0.534,0.074,0.788-0.398C98.12,62.882,96.745,61.929,96.614,61.603z M69.402,27.532   c0.456,0.276,0.834,0.646,1.114,1.079c-0.422,0.447-0.726,1.669-0.706,2.348c0.238,0.501,0.978,0.494,1.218,0.273   c-0.167,0.99-0.712,2.029-1.725,2.968C68.432,31.34,68.333,28.797,69.402,27.532z M46.267,32.128   c0.871-1.083,2.871-1.526,4.619-0.845c1.999,0.778,2.891,2.167,3.703,3.568c-0.813,2.959-3.597,3.887-5.791,3.24   C46.912,37.535,45.478,34.712,46.267,32.128z M70.908,46.014c-0.7,0.98-0.147,3.577-0.294,4.7   c-0.325,2.482-0.848,3.567-1.311,4.312c-3.74,6.021-12.264,10.886-27.847,11.083c-0.949,0.012-2.081,0.195-3.01-1.209   c-2.024-3.059-4.421-4.85-5.139-5.895s8.281,0.223,9.464-0.588c3.101-2.127-2.521-4.33-2.553-5.135   c-0.084-2.14,4.811-1.914,4.782-4.277c-0.01-0.859,10.829-3.645,12.396-3.774c1.566-0.131,7.065-1.204,8.094-1.893   c0.945-0.633,0.552,0.322,4.962-0.112c1.109-0.108,1.566-0.149,1.666,0.603C72.229,44.666,71.561,45.1,70.908,46.014z"/><path fill="#000000" d="M51.835,34.623c-0.337-1.06-2.869-2.889-4.669-1.172C47.954,36.122,51.471,35.391,51.835,34.623z"/></g><text x="0" y="115" fill="#000000" font-size="5px" font-weight="bold" font-family="'Helvetica Neue', Helvetica, Arial-Unicode, Arial, Sans-serif">Created by Christy Presler</text><text x="0" y="120" fill="#000000" font-size="5px" font-weight="bold" font-family="'Helvetica Neue', Helvetica, Arial-Unicode, Arial, Sans-serif">from the Noun Project</text></svg>